<?xml version="1.0" encoding="utf-8"?>
<!-- Generator: Adobe Illustrator 22.0.1, SVG Export Plug-In . SVG Version: 6.00 Build 0)  -->
<svg version="1.1" id="Layer_1" xmlns="http://www.w3.org/2000/svg" xmlns:xlink="http://www.w3.org/1999/xlink" x="0px" y="0px"
	 viewBox="0 0 765.9 270.7" style="enable-background:new 0 0 765.9 270.7;" xml:space="preserve">
<style type="text/css">
	.st0{fill:#010101;}
</style>
<g id="XMLID_16_">
	<g id="XMLID_63_">
		<path id="XMLID_75_" class="st0" d="M148.6,95.8c-13.2-13.6-30.9-21-49.9-21c-9.7,0-19.1,1.9-28,5.6C62.2,84,54.6,89,48,95.6
			c-6.6,6.4-11.8,14.1-15.5,22.4c-3.8,8.7-5.7,17.9-5.7,27.4c0,9.4,1.9,18.6,5.6,27.3c3.6,8.5,8.9,16,15.3,22.6
			c6.6,6.6,14.2,11.6,22.8,15.3c8.9,3.8,18.2,5.7,27.8,5.7c19.1,0,36.8-7.5,50.2-21c6.4-6.4,11.5-14.1,14.9-22.6
			c3.6-8.5,5.4-17.7,5.4-27.3c0-9.4-1.7-18.6-5.4-27.3C159.8,109.9,155,102.2,148.6,95.8z M147.3,166.1c-2.8,6.4-6.4,12.2-11.3,17
			C126,193.2,112.6,199,98.2,199c-14.4,0-28-5.7-38.2-16c-5-4.9-8.9-10.6-11.6-17c-2.8-6.6-4.2-13.4-4.2-20.5
			c0-7.1,1.4-14.1,4.3-20.5c2.6-6.4,6.6-12.2,11.6-17c5-5,10.8-8.9,17.4-11.6c6.8-2.8,13.9-4.2,21.2-4.2c14.2,0,27.6,5.6,37.5,15.8
			c9.7,9.9,15.1,23.3,15.1,37.5C151.3,152.6,149.9,159.5,147.3,166.1z"/>
		<path id="XMLID_74_" class="st0" d="M580.3,76.8L580.3,76.8L580.3,76.8c-4.7,0-8.7,4-8.7,8.7V182v22.7v8.7H589v-8.7V182v-73.8
			V85.5v-8.7H580.3z"/>
		<path id="XMLID_73_" class="st0" d="M674.6,81.7"/>
		<path id="XMLID_72_" class="st0" d="M682.4,76.8"/>
		<path id="XMLID_71_" class="st0" d="M675.1,80.9"/>
		<path id="XMLID_68_" class="st0" d="M754.8,213.1L690.2,81.7c-1.4-3-4.5-4.9-7.8-4.9c-3.3,0-6.3,1.9-7.8,4.9l-57.1,117.6
			l-7.3,14.1h15l0,0c1.9-0.2,3.8-1,5.2-2.4c0.2-0.2,12.5-11.6,30.2-21c10.3-5.4,20.2-8.9,29.7-10.6c10.2-1.9,19.8-1.6,28.8,1
			l13.5,28c1.6,3.2,5.2,4.9,8.6,4.7H754.8z M687.1,162.3c-11.3,2.1-23.1,6.3-34.7,12.5c-1.7,0.9-3.3,1.7-4.9,2.6l34.9-72.1
			l27.3,55.8C702.4,160.4,694.9,160.9,687.1,162.3z"/>
		<path id="XMLID_67_" class="st0" d="M389.7,29.1c-1.8-0.2-4.1,0.7-4.3,0.8l-31.1,13.6c-2.8,1.2-5.2,3.5-5.6,6.7
			c-0.5,4.3,2.7,8.2,7,8.6c1.1,0.1,2.2,0,3.3-0.3l0,0l0.1,0c0.4-0.1,0.9-0.3,1.3-0.6l31-13.6c0.5-0.2,5.1-2.2,5.4-6.6
			C396.9,33.4,394,29.6,389.7,29.1z"/>
		<path id="XMLID_66_" class="st0" d="M339.7,196.5V154h64.4c4.8,0,8.6-3.7,8.7-8.4h0v-9h-73.2v-42h72.8c4.9,0,8.7-3.8,8.7-8.7
			c0,0,0-0.1,0-0.1v-8.6H331c-4.7,0-8.7,3.8-8.7,8.7v128h92c4.8,0,8.6-3.7,8.7-8.5h0v-8.9H339.7z"/>
		<path id="XMLID_65_" class="st0" d="M543.8,196.1h-75.9V76.6h-8.7c-4.7,0-8.7,3.8-8.7,8.7h0v0v128.2h84.6c4.9,0,8.7-3.8,8.7-8.7
			c0-0.1,0-0.2,0-0.3h0V196.1z"/>
		<path id="XMLID_64_" class="st0" d="M204.2,77c-4.9,0-8.7,4-8.7,8.7v128.4h17.4v-58.5h62.6c4.7,0,8.6-3.8,8.7-8.6h0v-8.8l-71.2,0
			V94.4h73.1c4.9,0,8.7-3.8,8.7-8.7h0V77H204.2z"/>
	</g>
	<g id="XMLID_40_">
		<path id="XMLID_61_" class="st0" d="M247,239.3h4.4v20.8h13v4H247V239.3z"/>
		<path id="XMLID_58_" class="st0" d="M273.5,260.8c-2.4-2.4-3.6-5.5-3.6-9v-0.1c0-3.5,1.2-6.5,3.6-9c2.5-2.5,5.6-3.8,9.3-3.8
			c3.8,0,6.9,1.2,9.3,3.8c2.4,2.4,3.6,5.5,3.6,9v0.1c0,3.5-1.2,6.5-3.6,9c-2.5,2.5-5.6,3.8-9.3,3.8
			C279.1,264.5,276,263.3,273.5,260.8z M288.9,258c1.6-1.7,2.3-3.7,2.3-6.2v-0.1c0-2.4-0.8-4.5-2.4-6.2c-1.6-1.7-3.6-2.6-6.1-2.6
			c-2.4,0-4.4,0.9-6,2.5c-1.6,1.7-2.3,3.8-2.3,6.2v0.1c0,2.4,0.8,4.5,2.4,6.2c1.6,1.7,3.6,2.6,6.1,2.6
			C285.4,260.5,287.3,259.7,288.9,258z"/>
		<path id="XMLID_56_" class="st0" d="M302.8,260.5l2.6-3.1c2.5,2.2,5.1,3.2,7.8,3.2c1.3,0,2.4-0.3,3.2-0.9c0.8-0.6,1.2-1.3,1.2-2.2
			v-0.1c0-0.9-0.4-1.6-1.1-2.2c-0.8-0.6-2.3-1.1-4.5-1.6c-2.9-0.7-4.9-1.5-6.1-2.5c-1.5-1.1-2.2-2.8-2.2-4.9v-0.1
			c0-2.1,0.8-3.9,2.4-5.2c1.6-1.3,3.6-2,6.1-2c3.4,0,6.4,1,9,3.1l-2.3,3.3c-2.3-1.7-4.5-2.5-6.7-2.5c-1.2,0-2.2,0.3-3,0.8
			c-0.7,0.5-1.1,1.2-1.1,2.1v0.1c0,1,0.4,1.7,1.2,2.2c0.8,0.5,2.4,1.1,4.7,1.7c2.7,0.7,4.7,1.5,5.9,2.5c1.3,1.2,2,2.7,2,4.7v0.1
			c0,2.3-0.8,4.1-2.5,5.5c-1.6,1.3-3.7,1.9-6.4,1.9C309.2,264.5,305.8,263.2,302.8,260.5z"/>
		<path id="XMLID_53_" class="st0" d="M353.1,239.2h4l10.9,25h-4.6l-2.5-6h-11.7l-2.5,6h-4.5L353.1,239.2z M359.3,254.3l-4.3-9.9
			l-4.2,9.9H359.3z"/>
		<path id="XMLID_51_" class="st0" d="M375.8,239.3h4l13.3,17.1v-17.1h4.3v24.8h-3.6l-13.7-17.6v17.6h-4.3V239.3z"/>
		<path id="XMLID_49_" class="st0" d="M408.2,260.9c-2.3-2.4-3.5-5.4-3.5-9.1v-0.1c0-3.5,1.2-6.5,3.6-9c2.4-2.5,5.5-3.8,9.2-3.8
			c3.7,0,6.9,1.1,9.5,3.4l-2.8,3.3c-2.1-1.8-4.4-2.7-6.9-2.7c-2.3,0-4.2,0.9-5.7,2.6c-1.5,1.7-2.3,3.8-2.3,6.2v0.1
			c0,2.6,0.8,4.7,2.3,6.3c1.6,1.7,3.6,2.5,6.1,2.5c2.3,0,4.3-0.6,6-1.9v-4.6h-6.3v-3.8h10.5v10.4c-3,2.6-6.4,3.9-10.3,3.9
			C413.7,264.5,410.6,263.3,408.2,260.9z"/>
		<path id="XMLID_47_" class="st0" d="M437.1,239.3h18.4v3.9h-14v6.4h12.4v3.9h-12.4v6.7h14.2v3.9h-18.5V239.3z"/>
		<path id="XMLID_45_" class="st0" d="M464.3,239.3h4.4v20.8h13v4h-17.4V239.3z"/>
		<path id="XMLID_43_" class="st0" d="M489.8,239.3h18.4v3.9h-14v6.4h12.4v3.9h-12.4v6.7h14.2v3.9h-18.5V239.3z"/>
		<path id="XMLID_41_" class="st0" d="M515.4,260.5l2.6-3.1c2.5,2.2,5.1,3.2,7.8,3.2c1.3,0,2.4-0.3,3.2-0.9c0.8-0.6,1.2-1.3,1.2-2.2
			v-0.1c0-0.9-0.4-1.6-1.1-2.2c-0.8-0.6-2.3-1.1-4.5-1.6c-2.9-0.7-4.9-1.5-6.1-2.5c-1.5-1.1-2.2-2.8-2.2-4.9v-0.1
			c0-2.1,0.8-3.9,2.4-5.2c1.6-1.3,3.6-2,6.1-2c3.4,0,6.4,1,9,3.1l-2.3,3.3c-2.3-1.7-4.5-2.5-6.7-2.5c-1.2,0-2.2,0.3-3,0.8
			c-0.7,0.5-1.1,1.2-1.1,2.1v0.1c0,1,0.4,1.7,1.2,2.2c0.8,0.5,2.4,1.1,4.7,1.7c2.7,0.7,4.7,1.5,5.9,2.5c1.3,1.2,2,2.7,2,4.7v0.1
			c0,2.3-0.8,4.1-2.5,5.5c-1.6,1.3-3.7,1.9-6.4,1.9C521.8,264.5,518.3,263.2,515.4,260.5z"/>
	</g>
</g>
</svg>
